<?xml version="1.0" encoding="utf-8"?>
<!-- Generator: Adobe Illustrator 22.0.1, SVG Export Plug-In . SVG Version: 6.00 Build 0)  -->
<svg version="1.1" id="Layer_1" xmlns="http://www.w3.org/2000/svg" xmlns:xlink="http://www.w3.org/1999/xlink" x="0px" y="0px"
	 viewBox="0 0 71.2 84.1" style="enable-background:new 0 0 71.2 84.1;" xml:space="preserve">
<title>99all</title>
<g>
	<path d="M9.6,29C9.8,13.2,23.8,0,40.4,0c12.9-0.1,25.2,8.2,29.2,19.6c2.7,6,1.4,16.8,0.3,26.4c-0.4,3.1-0.7,6.1-0.9,8.5
		c-0.2,3.3-0.2,6.6,0.1,9.9l1.6,16.9c0.1,1.1-0.7,2.1-1.8,2.2c-0.1,0-0.1,0-0.2,0l-40.4,0.5l0,0c-1.1,0-2-0.9-2-2c0,0,0,0,0-0.1
		l0.4-10.2L15,72.5c-1,0.1-1.9-0.6-2.1-1.6L10,56.7l-8.2-0.8c-1.1-0.1-1.9-1.1-1.8-2.2c0-0.2,0.1-0.4,0.1-0.5L9.6,29z M11.9,52.9
		c0.9,0.1,1.6,0.7,1.8,1.6l2.9,14l12-0.8l11.3-2.1l0.7,3.9l-9.8,1.8l-0.3,8.8l36.1-0.4l-1.4-14.8c-0.3-3.5-0.4-7-0.1-10.5
		c0.2-2.5,0.5-5.6,0.9-8.7c1-8.7,2.3-19.5,0-24.4c0-0.1-0.1-0.1-0.1-0.2C62.4,11.1,51.7,3.9,40.4,3.9c-14.5,0-26.8,11.6-26.8,25.4
		c0,0.2,0,0.5-0.1,0.7L4.8,52.2L11.9,52.9z"/>
	<rect x="25.9" y="31" transform="matrix(0.1761 -0.9844 0.9844 0.1761 0.1349 66.1744)" width="27.4" height="4"/>
	<polygon points="50.9,23.2 58.7,33 50.9,42.8 47.8,40.3 53.6,33 47.8,25.7 	"/>
	<polygon points="31.4,25.7 25.6,33 31.4,40.3 28.3,42.8 20.5,33 28.3,23.2 	"/>
</g>
</svg>
